HIERARCHY
ROOT Hips
{
	OFFSET 0.00000 0.00000 0.00000
	CHANNELS 6 Xposition Yposition Zposition Zrotation Yrotation Xrotation 
	JOINT LHipJoint
	{
		OFFSET 0 0 0
		CHANNELS 3 Zrotation Yrotation Xrotation
		JOINT LeftUpLeg
		{
			OFFSET 3.13874 -1.57224 1.49786
			CHANNELS 3 Zrotation Yrotation Xrotation
			JOINT LeftLeg
			{
				OFFSET 2.10955 -5.79594 0.00000
				CHANNELS 3 Zrotation Yrotation Xrotation
				JOINT LeftFoot
				{
					OFFSET 2.41843 -6.64458 0.00000
					CHANNELS 3 Zrotation Yrotation Xrotation
					JOINT LeftToeBase
					{
						OFFSET 0.04713 -0.12948 1.66229
						CHANNELS 3 Zrotation Yrotation Xrotation
						End Site
						{
							OFFSET 0.00000 -0.00000 0.85167
						}
					}
				}
			}
		}
	}
	JOINT RHipJoint
	{
		OFFSET 0 0 0
		CHANNELS 3 Zrotation Yrotation Xrotation
		JOINT RightUpLeg
		{
			OFFSET -3.13988 -1.57224 1.49786
			CHANNELS 3 Zrotation Yrotation Xrotation
			JOINT RightLeg
			{
				OFFSET -2.15006 -5.90725 0.00000
				CHANNELS 3 Zrotation Yrotation Xrotation
				JOINT RightFoot
				{
					OFFSET -2.34496 -6.44273 0.00000
					CHANNELS 3 Zrotation Yrotation Xrotation
					JOINT RightToeBase
					{
						OFFSET -0.08699 -0.23900 1.55223
						CHANNELS 3 Zrotation Yrotation Xrotation
						End Site
						{
							OFFSET -0.00000 -0.00000 0.80281
						}
					}
				}
			}
		}
	}
	JOINT LowerBack
	{
		OFFSET 0 0 0
		CHANNELS 3 Zrotation Yrotation Xrotation
		JOINT Spine
		{
			OFFSET 0.01292 1.96517 -0.16495
			CHANNELS 3 Zrotation Yrotation Xrotation
			JOINT Spine1
			{
				OFFSET 0.02122 1.88666 0.19706
				CHANNELS 3 Zrotation Yrotation Xrotation
				JOINT Neck
				{
					OFFSET 0 0 0
					CHANNELS 3 Zrotation Yrotation Xrotation
					JOINT Neck1
					{
						OFFSET -0.01683 1.81591 0.07903
						CHANNELS 3 Zrotation Yrotation Xrotation
						JOINT Head
						{
							OFFSET 0.00815 1.74013 -0.47700
							CHANNELS 3 Zrotation Yrotation Xrotation
							End Site
							{
								OFFSET -0.00204 1.83225 -0.16933
							}
						}
					}
				}
				JOINT LeftShoulder
				{
					OFFSET 0 0 0
					CHANNELS 3 Zrotation Yrotation Xrotation
					JOINT LeftArm
					{
						OFFSET 3.38482 1.41533 0.19802
						CHANNELS 3 Zrotation Yrotation Xrotation
						JOINT LeftForeArm
						{
							OFFSET 4.32712 -0.00000 0.00000
							CHANNELS 3 Zrotation Yrotation Xrotation
							JOINT LeftHand
							{
								OFFSET 3.28587 -0.00000 -0.00000
								CHANNELS 3 Zrotation Yrotation Xrotation
								JOINT LeftFingerBase
								{
									OFFSET 0 0 0
									CHANNELS 3 Zrotation Yrotation Xrotation
									JOINT LeftHandIndex1
									{
										OFFSET 0.43316 -0.00000 -0.00000
										CHANNELS 3 Zrotation Yrotation Xrotation
										End Site
										{
											OFFSET 0.34922 -0.00000 -0.00000
										}
									}
								}
								JOINT LThumb
								{
									OFFSET 0 0 0
									CHANNELS 3 Zrotation Yrotation Xrotation
									End Site
									{
										OFFSET 0.35456 -0.00000 0.35456
									}
								}
							}
						}
					}
				}
				JOINT RightShoulder
				{
					OFFSET 0 0 0
					CHANNELS 3 Zrotation Yrotation Xrotation
					JOINT RightArm
					{
						OFFSET -3.09725 1.62858 -0.14144
						CHANNELS 3 Zrotation Yrotation Xrotation
						JOINT RightForeArm
						{
							OFFSET -4.29104 -0.00000 0.00000
							CHANNELS 3 Zrotation Yrotation Xrotation
							JOINT RightHand
							{
								OFFSET -3.22720 -0.00000 -0.00000
								CHANNELS 3 Zrotation Yrotation Xrotation
								JOINT RightFingerBase
								{
									OFFSET 0 0 0
									CHANNELS 3 Zrotation Yrotation Xrotation
									JOINT RightHandIndex1
									{
										OFFSET -0.54362 -0.00000 -0.00000
										CHANNELS 3 Zrotation Yrotation Xrotation
										End Site
										{
											OFFSET -0.43828 -0.00000 -0.00000
										}
									}
								}
								JOINT RThumb
								{
									OFFSET 0 0 0
									CHANNELS 3 Zrotation Yrotation Xrotation
									End Site
									{
										OFFSET -0.44497 -0.00000 0.44497
									}
								}
							}
						}
					}
				}
			}
		}
	}
}
MOTION
Frames: 13
Frame Time: .0083333
-8.4532 16.1331 4.1828 0 0 0 0 0 0 -21 0 0 0 0 0 0 0 0 0 0 0 0 0 0 21 0 0 0 0 0 0 0 0 0 0 0 0 0 0 0 0 0 0 0 0 0 0 -16 0 0 21 0 0 11 0 0 0 -8 0 0 0 0 0 0 0 0 0 0 0 0 0 0 0 0 0 0 0 0 8 0 0 0 0 0 0 0 0 0 0 0 0 0 0 0 0 0
-8.4532 16.1331 4.1828 175.5300 -85.0937 -165.6700 0.0000 0.0000 0.0000 -32.2205 -21.9820 1.8642 0.1442 2.4469 6.7424 1.9651 -16.1693 -25.9861 0.2690 -3.3361 -9.2160 0.0000 0.0000 0.0000 21.1585 12.8809 -16.8784 -1.2581 -7.1105 20.0433 -0.7826 -7.3513 -20.9505 -3.4418 11.3781 -33.5659 -4.2993 1.9091 8.5878 1.5275 1.9187 -9.1039 3.7382 1.3946 -15.2070 -0.2811 -1.3241 -21.3138 -1.7745 -1.6478 28.5651 -0.9665 -1.1602 13.1270 -0.0000 0.0000 0.0000 -78.3498 19.8286 5.5243 13.1041 -21.4395 -2.4912 -0.0000 -0.0000 16.4101 31.1869 30.4772 17.0670 -7.1250 0.0000 -0.0000 -0.0945 64.5048 -0.0446 -0.0000 0.0000 0.0000 68.0933 -13.0996 26.3860 -20.8502 31.6531 -5.9711 0.0000 -0.0000 -34.1831 15.0412 -34.0585 -8.5584 7.1250 -0.0000 -0.0000 51.1740 -56.5332 -17.6206
-8.4772 16.1479 4.1806 179.9580 -84.9676 -169.9310 0.0000 0.0000 0.0000 -31.8172 -22.0458 1.9531 0.1400 2.4119 6.6454 2.2304 -14.4855 -27.2276 0.5693 -4.8321 -13.4304 0.0000 0.0000 0.0000 21.1845 15.6872 -15.9166 -0.9110 -6.0818 17.0221 -0.7072 -8.2216 -20.9336 -3.5202 11.4930 -33.9611 -3.9511 1.8775 8.6620 1.6843 1.9420 -9.1835 3.7135 1.3812 -15.3426 -0.4637 -1.1835 -21.4479 -1.6960 -1.3962 28.5710 -0.8628 -1.0580 13.1629 -0.0000 -0.0000 0.0000 -78.5822 19.1745 3.3740 12.5643 -20.6454 -2.2974 -0.0000 -0.0000 17.7104 32.2602 29.0367 17.0333 -7.1250 0.0000 -0.0000 1.9028 63.2544 0.8430 -0.0000 -0.0000 0.0000 67.9124 -13.2498 30.6343 -20.5083 31.2499 -5.7928 0.0000 -0.0000 -30.7741 5.4433 -28.4311 -2.5976 7.1250 -0.0000 -0.0000 37.4542 -54.2479 -9.5279
-8.5138 16.1573 4.1746 181.9430 -84.8985 -171.7940 0.0000 0.0000 0.0000 -31.7190 -22.2401 2.2315 0.1342 2.3615 6.5057 2.4992 -12.4559 -28.5470 1.0575 -6.5386 -18.3554 0.0000 0.0000 0.0000 20.9125 18.4985 -14.7696 -0.5962 -4.9429 13.7458 -0.3837 -10.7756 -20.1091 -4.4584 12.7466 -38.4271 -3.7048 1.8437 8.5458 1.7237 1.9402 -9.2062 3.6214 1.3540 -15.2828 -0.3818 -1.0716 -21.4797 -1.7358 -1.2461 28.4983 -0.8651 -0.9870 13.1398 0.0000 0.0000 0.0000 -78.6624 18.4574 2.0628 12.1925 -20.0927 -2.1680 -0.0000 -0.0000 18.0642 32.7484 29.6041 17.6268 -7.1250 0.0000 -0.0000 2.3236 64.0064 1.0705 0.0000 0.0000 0.0000 67.9400 -13.3822 34.4393 -20.2498 30.9422 -5.6592 0.0000 -0.0000 -26.6812 -3.2356 -25.7986 1.4094 7.1250 -0.0000 -0.0000 27.5093 -53.6165 -6.1938
-8.5655 16.1625 4.1645 181.1110 -84.8530 -170.8740 0.0000 0.0000 0.0000 -31.9590 -22.4816 2.7315 0.1231 2.2615 6.2289 2.7120 -10.6718 -29.6739 1.5838 -7.9393 -22.5300 0.0000 0.0000 0.0000 20.3463 21.3429 -13.4422 -0.3378 -3.7352 10.3328 -0.1518 -12.0146 -18.9870 -5.7063 14.1376 -43.7914 -3.7009 1.7889 8.3206 1.6934 1.8633 -9.2585 3.6054 1.3123 -15.1916 0.0541 -0.9074 -21.3010 -2.0054 -1.0831 28.3817 -1.0122 -0.9051 13.0506 -0.0000 -0.0000 0.0000 -78.7154 17.9978 1.8332 11.9434 -19.7197 -2.0831 -0.0000 -0.0000 17.7075 33.2666 30.3601 18.3448 -7.1250 0.0000 -0.0000 2.7201 64.9741 1.3145 -0.0000 -0.0000 0.0000 67.9723 -13.5431 37.9203 -19.9295 30.5573 -5.4955 0.0000 -0.0000 -22.7614 -10.1604 -24.0428 4.1761 7.1250 -0.0000 -0.0000 19.8366 -53.2517 -4.1553
-8.6236 16.1659 4.1507 179.1540 -84.8315 -168.8480 0.0000 0.0000 0.0000 -32.3175 -22.7645 3.3152 0.1099 2.1376 5.8861 2.8210 -10.1320 -30.2812 1.7210 -8.2591 -23.5038 0.0000 0.0000 0.0000 19.7287 23.8644 -12.1400 -0.1566 -2.5498 7.0278 -0.0489 -11.7632 -17.3933 -5.6638 14.0944 -43.6171 -3.7994 1.7096 8.1035 1.6512 1.7307 -9.3853 3.6460 1.2564 -15.1963 -0.0463 -0.8328 -21.1820 -1.9257 -0.9756 28.5419 -0.9480 -0.8629 13.0949 0.0000 0.0000 0.0000 -78.8836 17.7427 1.9564 11.7953 -19.4970 -2.0335 -0.0000 -0.0000 17.4498 33.4780 30.4937 18.5512 -7.1250 0.0000 -0.0000 2.9540 65.1801 1.4417 0.0000 0.0000 0.0000 67.9100 -13.7004 41.3038 -19.5042 30.0403 -5.2809 0.0000 -0.0000 -19.8380 -16.1093 -21.2692 5.9808 7.1250 -0.0000 -0.0000 12.7484 -51.5933 -2.0986
-8.6851 16.1639 4.1337 177.3610 -84.8536 -166.9780 0.0000 0.0000 0.0000 -32.7076 -23.2933 4.0305 0.0950 1.9879 5.4722 2.8835 -10.9066 -30.6272 1.3779 -7.4281 -20.9899 0.0000 0.0000 0.0000 19.2702 25.5968 -11.0663 -0.0566 -1.5351 4.2225 -0.2003 -9.8849 -16.9814 -4.1174 12.3150 -36.8558 -3.7381 1.6699 7.7519 1.5176 1.6692 -9.5035 3.4792 1.2066 -15.0981 -0.1705 -0.8381 -20.9845 -1.7384 -1.0147 28.7245 -0.8626 -0.8734 13.1309 -0.0000 -0.0000 0.0000 -78.9444 17.4455 2.8229 11.8249 -19.5415 -2.0433 -0.0000 -0.0000 17.0708 33.5425 31.4097 19.0601 -7.1250 0.0000 -0.0000 2.6602 66.1895 1.3602 -0.0000 -0.0000 0.0000 67.7991 -14.2915 47.1739 -19.1537 29.6093 -5.1066 0.0000 -0.0000 -13.5160 -28.3217 -21.3857 11.1180 7.1250 -0.0000 -0.0000 0.4052 -53.9616 -0.0893
-8.7502 16.1535 4.1165 174.9220 -84.9019 -164.5380 0.0000 0.0000 0.0000 -33.3280 -24.1943 5.1597 0.0744 1.7596 4.8418 2.9758 -12.3602 -31.1655 0.8412 -5.8502 -16.3503 0.0000 0.0000 0.0000 19.0029 26.2968 -10.1995 -0.0199 -0.9100 2.5012 0.3443 -11.9932 -10.9128 -4.2874 12.5333 -37.6458 -3.6289 1.6614 7.4075 1.3109 1.6478 -9.6216 3.1949 1.1648 -15.0028 -0.5670 -0.9596 -20.8911 -1.3001 -1.2136 29.1173 -0.6645 -0.9526 13.2793 -0.0000 -0.0000 0.0000 -78.9592 17.0730 4.0825 11.8605 -19.5951 -2.0553 -0.0000 -0.0000 16.8703 33.5254 31.9351 19.3129 -7.1250 0.0000 -0.0000 2.3979 66.7499 1.2569 -0.0000 -0.0000 0.0000 68.1286 -13.9858 47.9396 -18.9038 29.2990 -4.9837 0.0000 -0.0000 -13.4252 -28.2742 -21.2497 11.0309 7.1250 -0.0000 -0.0000 0.4237 -53.8034 -0.0917
-8.8208 16.1375 4.0982 170.9720 -84.9575 -160.7290 0.0000 0.0000 0.0000 -34.2231 -24.9607 6.5781 0.0546 1.5077 4.1469 3.1744 -12.3212 -32.2087 0.7592 -5.5648 -15.5266 0.0000 0.0000 0.0000 18.8638 26.3969 -9.1842 -0.0082 -0.5850 1.6076 0.6186 -13.8894 -7.0936 -1.9800 8.8243 -25.2471 -3.6670 1.6367 7.1579 1.0921 1.5776 -9.7548 2.9895 1.1170 -14.9906 -0.8450 -1.0172 -20.6802 -0.9607 -1.3448 29.5967 -0.5133 -1.0072 13.4408 -0.0000 0.0000 0.0000 -79.0291 16.6343 5.5181 11.8463 -19.5738 -2.0505 -0.0000 -0.0000 16.6527 33.1298 31.2063 18.6826 -7.1250 0.0000 -0.0000 2.1776 65.8482 1.0962 -0.0000 0.0000 0.0000 68.5166 -13.7482 48.6875 -18.6893 29.0307 -4.8791 0.0000 -0.0000 -13.3421 -28.6522 -20.6093 10.8867 7.1250 -0.0000 -0.0000 -0.1162 -53.1766 0.0234
-8.9028 16.1135 4.0714 165.1590 -84.9288 -155.1560 0.0000 0.0000 0.0000 -35.3705 -25.3293 8.1255 0.0374 1.2478 3.4309 3.4056 -11.0393 -33.3829 1.0253 -6.4413 -18.0703 0.0000 0.0000 0.0000 18.7700 26.8419 -7.4983 -0.0005 -0.1392 0.3824 0.6303 -14.2442 -8.6390 -2.0678 9.0059 -25.8138 -3.9139 1.6340 6.7978 0.8078 1.5080 -9.8178 2.8290 1.0852 -14.8301 -0.9746 -1.0844 -20.4885 -0.8112 -1.4840 30.0701 -0.4630 -1.0755 13.6033 0.0000 0.0000 0.0000 -78.9648 16.2357 8.2350 12.0885 -19.9373 -2.1324 -0.0000 -0.0000 15.3091 32.8030 31.3826 18.5538 -7.1250 0.0000 -0.0000 1.6477 65.9414 0.8330 0.0000 0.0000 0.0000 69.0079 -13.4001 49.3120 -18.4346 28.7100 -4.7562 0.0000 -0.0000 -13.2117 -29.2478 -19.9589 10.8213 7.1250 -0.0000 -0.0000 -0.8689 -52.5757 0.1620
-8.9895 16.0849 4.0378 158.3020 -84.7786 -148.6960 0.0000 0.0000 0.0000 -36.7911 -25.6395 9.9831 0.0217 0.9512 2.6145 3.6235 -10.4203 -34.4938 1.1087 -6.6898 -18.7995 0.0000 0.0000 0.0000 18.8382 28.1978 -4.7396 -0.0086 0.5975 -1.6420 1.0025 -17.6055 -9.5662 -1.7038 8.2197 -23.3835 -4.2558 1.6692 6.5474 0.4386 1.4675 -9.8469 2.6202 1.0719 -14.7040 -0.8443 -1.1353 -20.2772 -0.9076 -1.6127 30.5219 -0.5525 -1.1440 13.7490 -0.0000 -0.0000 0.0000 -78.7604 16.0817 11.9376 12.7045 -20.8526 -2.3470 -0.0000 -0.0000 13.1447 32.0473 32.1110 18.4058 -7.1250 0.0000 -0.0000 0.2450 66.4957 0.1270 -0.0000 -0.0000 0.0000 69.6194 -13.0038 49.6421 -18.0707 28.2476 -4.5826 0.0000 -0.0000 -12.6553 -29.2085 -20.0762 10.8638 7.1250 -0.0000 -0.0000 -0.8057 -52.6978 0.1526
-9.0736 16.0636 4.0043 152.9770 -84.6565 -143.9680 0.0000 0.0000 0.0000 -38.1479 -25.8915 12.0827 0.0096 0.6336 1.7412 3.7767 -11.4571 -35.2305 0.7531 -5.5427 -15.4632 0.0000 0.0000 0.0000 19.3948 29.7097 -1.5200 -0.0390 1.2747 -3.5049 1.3518 -20.2995 -11.1508 -1.2966 7.2143 -20.3518 -4.4191 1.7046 6.5611 0.0873 1.4481 -9.8408 2.3233 1.0536 -14.6991 -0.8282 -1.1617 -19.9539 -0.7755 -1.7403 30.8596 -0.5286 -1.1914 13.8258 0.0000 0.0000 0.0000 -78.6950 15.8194 14.6638 13.2978 -21.7220 -2.5625 -0.0000 -0.0000 11.6746 30.9391 32.0775 17.6578 -7.1250 0.0000 -0.0000 -1.2479 66.1322 -0.6363 0.0000 0.0000 0.0000 70.3991 -12.7017 49.4379 -17.6845 27.7513 -4.4014 0.0000 -0.0000 -11.9759 -28.8133 -20.3389 10.8235 7.1250 -0.0000 -0.0000 -0.3410 -52.9107 0.0664
-9.1599 16.0529 3.9727 150.7970 -84.6302 -142.4420 0.0000 0.0000 0.0000 -39.1340 -25.9284 14.1344 0.0025 0.3243 0.8910 3.8454 -13.1578 -35.5777 0.4187 -4.1532 -11.5081 0.0000 0.0000 0.0000 20.3381 30.3496 1.0757 -0.0667 1.6660 -4.5835 1.5982 -21.8936 -11.6036 -1.5167 7.7770 -22.0387 -4.2973 1.7327 6.5729 -0.1566 1.4767 -9.7756 1.9784 1.0344 -14.6144 -0.9687 -1.1775 -19.7030 -0.5657 -1.8171 31.1512 -0.4373 -1.2226 13.9020 0.0000 0.0000 0.0000 -78.9589 15.0490 15.4716 13.3904 -21.8566 -2.5968 -0.0000 -0.0000 11.2657 30.3300 30.0155 16.3129 -7.1250 0.0000 -0.0000 -0.9830 63.7723 -0.4474 0.0000 0.0000 0.0000 71.1606 -12.4312 49.0193 -17.3787 27.3544 -4.2599 0.0000 -0.0000 -11.6475 -28.5066 -20.5106 10.7742 7.1250 -0.0000 -0.0000 0.0152 -53.0395 -0.0030
